<svg xmlns="http://www.w3.org/2000/svg" width="800" height="210" viewBox="0 0 800 210">
  <path fill="#00334E" d="M131.287034,69.1267837 L68.7313103,69.1267837 L68.7313103,99.5468377 L118.507862,99.5468377 L118.507862,112.209959 L68.7313103,112.209959 L68.7313103,155.293134 L56,155.293134 L56,56.4636626 L131.287034,56.4636626 L131.287034,69.1267837 Z M333.456414,118.398702 L333.456414,53.7977424 L347.049241,53.7977424 L347.049241,118.398702 C347.049241,141.677898 330.536828,157.959054 306.605793,157.959054 C295.843652,158.452447 285.360443,154.469209 277.670091,146.964541 C269.979739,139.459873 265.77588,129.110663 266.066621,118.398702 L266.066621,53.7977424 L279.659448,53.7977424 L279.659448,118.398702 C279.339227,125.53292 282.102561,132.462628 287.252076,137.439002 C292.401592,142.415375 299.445369,144.963032 306.605793,144.43903 C313.746266,144.919031 320.75466,142.353588 325.878788,137.384095 C331.002916,132.414602 333.758429,125.510791 333.456414,118.398702 Z M405.297379,51.1794279 L405.345241,51.0366107 C416.082632,50.571182 426.53245,54.5601271 434.199888,62.0511186 C441.867326,69.5421101 446.064254,79.8628532 445.78869,90.549357 L445.78869,155.293134 L432.339448,155.293134 L432.339448,90.549357 C431.730435,76.1731226 419.835646,64.8300544 405.369172,64.8300544 C390.902699,64.8300544 379.00791,76.1731226 378.398897,90.549357 L378.398897,155.293134 L364.853931,155.293134 L364.853931,90.7397799 C364.853931,67.4605836 381.366345,51.1794279 405.297379,51.1794279 Z M734.014069,56.3208455 L750,56.3208455 L708.312138,113.352496 L708.312138,155.435951 L695.197931,155.435951 L695.197931,113.400102 L653.366483,56.3208455 L669.352414,56.3208455 L701.707172,99.8800778 L734.014069,56.3208455 Z M636.854069,108.449107 C642.621505,113.400612 645.751244,120.734572 645.325655,128.300692 L645.325655,155.293134 L632.498621,155.293134 L632.498621,128.300692 C632.498621,119.112788 627.473103,114.685456 617.087034,114.685456 L577.552966,114.685456 L577.552966,155.293134 L564.725931,155.293134 L564.725931,56.6540855 L616.799862,56.6540855 C635.801103,56.6540855 648.053793,68.0794579 648.053793,85.7887851 C648.199106,94.6936022 644.031916,103.125049 636.854069,108.449107 Z M617.326345,102.069941 C621.936169,102.460687 626.496949,100.892846 629.880413,97.7542787 C633.263878,94.6157113 635.153993,90.1995766 635.083172,85.5983623 C635.083172,74.8870756 628.765379,69.2219952 616.799862,69.2219952 L577.552966,69.2219952 L577.552966,102.069941 L617.326345,102.069941 Z M501.739448,56.1780283 C529.882345,56.1780283 546.681931,74.9346814 546.681931,105.592764 C546.681931,136.250847 529.451586,155.293134 501.691586,155.293134 L464.550621,155.293134 L464.550621,56.1780283 L501.739448,56.1780283 Z M501.739448,142.296773 C521.697931,142.296773 533.615586,129.062383 533.615586,105.592764 C533.615586,82.1231448 522.272276,69.1743894 501.739448,69.1743894 L477.808414,69.1743894 L477.808414,142.296773 L501.739448,142.296773 Z M0,0 L800,0 L800,210 L0,210 L0,0 Z M787.368421,197.4 L787.368421,12.6 L12.6315789,12.6 L12.6315789,197.4 L787.368421,197.4 Z M192.97618,146.510378 C212.286271,146.506848 228.811933,132.621367 232.18427,113.566272 L246,113.566272 C242.433999,140.154993 219.792857,160 193.02382,160 C166.254784,160 143.613641,140.154993 140.04764,113.566272 L153.76809,113.566272 C157.158221,132.611048 173.673123,146.487487 192.97618,146.510378 Z M192.97618,66.4896223 C173.655143,66.4893977 157.11375,80.3712286 153.720449,99.433728 L140,99.433728 C143.566001,72.8450068 166.207143,53 192.97618,53 C219.745216,53 242.386359,72.8450068 245.95236,99.433728 L232.18427,99.433728 C228.811933,80.3786328 212.286271,66.493152 192.97618,66.4896223 Z"/>
</svg>
